<svg data-v-423bf9ae="" xmlns="http://www.w3.org/2000/svg" viewBox="0 0 406 91" class="iconLeft"><g data-v-423bf9ae="" id="538428b4-16aa-4e7e-b7fa-05871d5297d7" fill="white" transform="matrix(4.495301924708614,0,0,4.495301924708614,108.63819910670472,13.997301750994431)"><path d="M5.82 5.01L3.67 3.58C1.85 2.39 2.39 0.55 3.91 0.55C6.15 0.55 7 2.59 7.27 3.33L7.50 3.33L7.50 0.98C7.50 0.98 6.30 0.31 3.91 0.31C1.69 0.31 1.01 1.37 1.01 1.37C-0.15 2.90 0.59 4.30 2.58 5.54L4.73 6.90C6.44 8.15 5.98 10.18 4.48 10.18C1.99 10.18 1.19 7.71 0.88 6.86L0.64 6.86L0.64 9.55C0.64 9.55 1.76 10.42 4.48 10.42C6.73 10.42 7.39 9.27 7.39 9.27C8.44 7.74 7.67 6.23 5.82 5.01ZM19.54 10.05C19.04 9.93 18.97 9.35 18.97 8.58L18.97 5.82C18.97 4.13 18.30 3.70 17.21 3.70C16.32 3.70 15.37 4.33 15.08 5.18C14.91 4.14 14.31 3.70 13.33 3.70C12.45 3.70 11.59 4.33 11.21 5.14L11.21 3.70L8.76 4.26L8.76 4.49C9.34 4.80 9.46 5.05 9.46 5.54L9.46 8.61C9.46 9.32 9.45 9.90 8.92 10.05L8.92 10.29L11.79 10.29L11.79 10.05C11.30 9.91 11.21 9.38 11.21 8.61L11.21 5.85C11.21 5.35 11.82 4.70 12.33 4.70C12.96 4.70 13.34 5.08 13.34 5.87L13.34 8.58C13.34 9.30 13.31 9.90 12.78 10.05L12.78 10.29L15.67 10.29L15.67 10.05C15.16 9.93 15.09 9.35 15.09 8.58L15.09 5.89L15.09 5.89C15.09 5.33 15.68 4.70 16.20 4.70C16.83 4.70 17.22 5.08 17.22 5.87L17.22 8.58C17.22 9.30 17.19 9.90 16.66 10.05L16.66 10.29L19.54 10.29L19.54 10.05ZM23.95 8.85C23.83 9.18 23.51 9.56 23.03 9.56C22.12 9.56 22.12 8.64 22.12 8.64C22.12 7.92 22.58 7.27 23.95 6.96C23.95 6.96 23.95 8.82 23.95 8.85ZM26.39 9.56C25.70 9.56 25.72 8.58 25.72 8.58L25.72 6.50C25.72 4.84 25.21 3.70 23.38 3.70C23.38 3.70 22.65 3.64 22.02 3.98C21.25 4.38 21.07 4.76 20.93 5.00C20.79 5.24 20.80 5.57 20.97 5.84C21.22 6.20 21.71 6.29 22.08 6.05C22.44 5.80 22.54 5.31 22.29 4.94C22.16 4.76 21.98 4.66 21.77 4.63C21.67 4.62 21.73 4.38 22.18 4.16C23.14 3.65 23.95 4.38 23.95 5.84L23.95 6.71C21.50 7.32 20.33 7.46 20.33 8.99C20.33 10.42 21.94 10.42 21.94 10.42C22.93 10.42 23.76 9.90 23.97 9.28C24.12 10.42 25.37 10.42 25.37 10.42C26.25 10.42 26.89 9.87 27.01 9.42L26.77 9.32C26.68 9.56 26.39 9.56 26.39 9.56ZM31.44 3.77C31.11 3.91 30.53 4.12 29.79 5.28L29.79 3.70L27.33 4.26L27.33 4.49C27.90 4.79 28.03 5.00 28.03 5.47L28.03 8.58C28.03 9.31 28.01 9.88 27.47 10.05L27.47 10.29L30.37 10.29L30.37 10.05C29.86 9.91 29.79 9.37 29.79 8.58L29.79 5.67C30.31 4.83 30.88 4.69 30.88 4.84C30.88 5.10 31.00 5.33 31.21 5.53C31.65 5.91 32.30 5.85 32.68 5.42C33.05 5.00 33.01 4.33 32.58 3.95C32.27 3.70 31.74 3.64 31.44 3.77ZM36.85 9.42C36.15 9.42 35.81 9.02 35.81 8.23L35.81 4.06L37.42 4.06L37.48 3.82L35.81 3.82L35.81 1.65L34.06 1.95L34.06 3.82L33.32 3.82L33.36 4.06L34.06 4.06L34.06 8.27C34.06 9.97 34.72 10.42 35.83 10.42C36.76 10.42 37.62 9.72 37.90 9.06L37.69 8.93C37.56 9.14 37.25 9.42 36.85 9.42ZM43.86 5.01L41.71 3.58C39.89 2.39 40.43 0.55 41.94 0.55C44.18 0.55 45.04 2.59 45.30 3.33L45.54 3.33L45.54 0.98C45.54 0.98 44.34 0.31 41.94 0.31C39.73 0.31 39.05 1.37 39.05 1.37C37.88 2.90 38.63 4.30 40.61 5.54L42.77 6.90C44.48 8.15 44.02 10.18 42.52 10.18C40.03 10.18 39.23 7.71 38.92 6.86L38.68 6.86L38.68 9.55C38.68 9.55 39.80 10.42 42.52 10.42C44.77 10.42 45.43 9.27 45.43 9.27C46.48 7.74 45.71 6.23 43.86 5.01ZM50.43 9.42C49.73 9.42 49.39 9.02 49.39 8.23L49.39 4.06L51.00 4.06L51.06 3.82L49.39 3.82L49.39 1.65L47.64 1.95L47.64 3.82L46.90 3.82L46.94 4.06L47.64 4.06L47.64 8.27C47.64 9.97 48.30 10.42 49.41 10.42C50.34 10.42 51.20 9.72 51.48 9.06L51.27 8.93C51.14 9.14 50.83 9.42 50.43 9.42ZM55.82 8.85C55.69 9.18 55.37 9.56 54.89 9.56C53.98 9.56 53.98 8.64 53.98 8.64C53.98 7.92 54.45 7.27 55.82 6.96C55.82 6.96 55.82 8.82 55.82 8.85ZM58.25 9.56C57.57 9.56 57.58 8.58 57.58 8.58L57.58 6.50C57.58 4.84 57.08 3.70 55.24 3.70C55.24 3.70 54.52 3.64 53.89 3.98C53.12 4.38 52.93 4.76 52.79 5.00C52.65 5.24 52.67 5.57 52.84 5.84C53.09 6.20 53.58 6.29 53.94 6.05C54.31 5.80 54.40 5.31 54.15 4.94C54.03 4.76 53.84 4.66 53.63 4.63C53.54 4.62 53.59 4.38 54.04 4.16C55.01 3.65 55.82 4.38 55.82 5.84L55.82 6.71C53.37 7.32 52.19 7.46 52.19 8.99C52.19 10.42 53.80 10.42 53.80 10.42C54.80 10.42 55.62 9.90 55.83 9.28C55.99 10.42 57.23 10.42 57.23 10.42C58.11 10.42 58.76 9.87 58.87 9.42L58.63 9.32C58.55 9.56 58.25 9.56 58.25 9.56ZM63.20 3.82L63.20 4.06C64.82 4.05 63.90 6.19 63.90 6.19L63.15 8.08L61.67 4.91C61.67 4.91 61.31 4.06 62.03 4.06L62.03 3.82L58.73 3.82L58.73 4.06C58.94 4.06 59.39 4.06 59.61 4.61C59.61 4.61 61.39 8.41 62.26 10.42L61.73 11.86C61.50 12.45 61.17 12.54 61.11 12.38C61.04 12.14 60.89 11.91 60.63 11.80C60.14 11.58 59.57 11.80 59.35 12.29C59.14 12.78 59.35 13.36 59.84 13.58C60.17 13.73 60.66 13.65 60.91 13.44C61.18 13.23 61.60 12.84 61.96 11.89L64.11 6.24C65.00 4.09 65.65 4.06 65.94 4.06L65.94 3.82Z"></path></g><g data-v-423bf9ae="" id="bc4113c4-8e82-4bfb-b19e-92c57e37e7fb" transform="matrix(1.0043333265516492,0,0,1.0043333265516492,-4.3718348763902455,-4.4126410204675395)" stroke="none" fill="white"><path d="M54.53 5.03h-9.086L5 41.667v49.238c0 2.211 2.352 4.515 4.374 4.515h27.71c2.328 0 4.657-2.281 4.657-4.586V66.281c0-2.422 2.163-4.727 4.304-4.727h7.937c2.446 0 4.586 2.211 4.586 4.374v25.047c0 2.187 2.211 4.445 4.374 4.445h27.71c2.399 0 4.657-2.163 4.657-4.515V41.631zm35.117 84.729H64.318v-29.35s.847-4.515-4.515-4.515H41.124s-5.133-.353-5.133 4.515v29.35H10.662V44.673l37.235-33.981h4.515l37.235 33.852z"></path></g></svg>